<svg xmlns="http://www.w3.org/2000/svg" xmlns:xlink="http://www.w3.org/1999/xlink"  viewBox="85 260 1340 840"  preserveAspectRatio="xMidYMid meet"><defs><g/><clipPath id="f46a4ba881"><rect x="0" width="617" y="0" height="648"/></clipPath><clipPath id="61b3f9d2e8"><rect x="0" width="617" y="0" height="648"/></clipPath><clipPath id="c9212a2ce2"><path d="M 105 369 L 1410 369 L 1410 1077 L 105 1077 Z M 105 369" clip-rule="nonzero"/></clipPath><clipPath id="a23d956636"><path d="M 16.742188 643.316406 L 1307.488281 266.054688 L 1514.109375 972.976562 L 223.363281 1350.238281 Z M 16.742188 643.316406" clip-rule="nonzero"/></clipPath><clipPath id="a3eb68b274"><path d="M 16.742188 643.316406 L 1307.488281 266.054688 L 1514.109375 972.976562 L 223.363281 1350.238281 Z M 16.742188 643.316406" clip-rule="nonzero"/></clipPath></defs><g transform="matrix(1, 0, 0, 1, 421, 324)"><g clip-path="url(#f46a4ba881)"><g fill="#381da3" fill-opacity="1"><g transform="translate(122.344936, 552.671094)"><g><path d="M 19.859375 -266.234375 C 11.566406 -263.816406 5.347656 -258.820312 1.203125 -251.25 C -2.941406 -243.6875 -3.800781 -235.765625 -1.375 -227.484375 C 1.039062 -219.203125 6.03125 -212.988281 13.59375 -208.84375 C 21.164062 -204.695312 29.097656 -203.832031 37.390625 -206.25 L 277.328125 -276.375 C 289.609375 -279.96875 301.9375 -281.015625 314.3125 -279.515625 C 326.6875 -278.023438 338.132812 -274.394531 348.65625 -268.625 C 359.175781 -262.863281 368.398438 -255.175781 376.328125 -245.5625 C 384.265625 -235.945312 390.03125 -225 393.625 -212.71875 C 397.21875 -200.425781 398.257812 -188.09375 396.75 -175.71875 C 395.25 -163.34375 391.613281 -151.894531 385.84375 -141.375 C 380.082031 -130.851562 372.390625 -121.628906 362.765625 -113.703125 C 353.148438 -105.773438 342.203125 -100.015625 329.921875 -96.421875 L 0 0 L -17.65625 -60.40625 L 312.265625 -156.828125 C 320.546875 -159.253906 326.78125 -164.179688 330.96875 -171.609375 C 335.15625 -179.035156 336.039062 -186.894531 333.625 -195.1875 C 331.207031 -203.46875 326.210938 -209.679688 318.640625 -213.828125 C 311.066406 -217.972656 303.140625 -218.832031 294.859375 -216.40625 L 54.921875 -146.28125 C 42.628906 -142.6875 30.296875 -141.632812 17.921875 -143.125 C 5.546875 -144.625 -5.898438 -148.253906 -16.421875 -154.015625 C -26.941406 -159.785156 -36.144531 -167.40625 -44.03125 -176.875 C -51.914062 -186.351562 -57.691406 -197.378906 -61.359375 -209.953125 C -64.953125 -222.234375 -66 -234.5625 -64.5 -246.9375 C -63 -259.320312 -59.367188 -270.769531 -53.609375 -281.28125 C -47.847656 -291.800781 -40.15625 -301.023438 -30.53125 -308.953125 C -20.914062 -316.878906 -9.960938 -322.640625 2.328125 -326.234375 L 332.265625 -422.671875 L 349.796875 -362.671875 Z M 19.859375 -266.234375"/></g></g></g></g></g><g transform="matrix(1, 0, 0, 1, -0.000000000000000028, 446)"><g clip-path="url(#61b3f9d2e8)"><g fill="#000000" fill-opacity="1"><g transform="translate(121.942153, 553.121681)"><g><path d="M 19.859375 -266.234375 C 11.566406 -263.816406 5.347656 -258.820312 1.203125 -251.25 C -2.941406 -243.6875 -3.800781 -235.765625 -1.375 -227.484375 C 1.039062 -219.203125 6.03125 -212.988281 13.59375 -208.84375 C 21.164062 -204.695312 29.097656 -203.832031 37.390625 -206.25 L 277.328125 -276.375 C 289.609375 -279.96875 301.9375 -281.015625 314.3125 -279.515625 C 326.6875 -278.023438 338.132812 -274.394531 348.65625 -268.625 C 359.175781 -262.863281 368.398438 -255.175781 376.328125 -245.5625 C 384.265625 -235.945312 390.03125 -225 393.625 -212.71875 C 397.21875 -200.425781 398.257812 -188.09375 396.75 -175.71875 C 395.25 -163.34375 391.613281 -151.894531 385.84375 -141.375 C 380.082031 -130.851562 372.390625 -121.628906 362.765625 -113.703125 C 353.148438 -105.773438 342.203125 -100.015625 329.921875 -96.421875 L 0 0 L -17.65625 -60.40625 L 312.265625 -156.828125 C 320.546875 -159.253906 326.78125 -164.179688 330.96875 -171.609375 C 335.15625 -179.035156 336.039062 -186.894531 333.625 -195.1875 C 331.207031 -203.46875 326.210938 -209.679688 318.640625 -213.828125 C 311.066406 -217.972656 303.140625 -218.832031 294.859375 -216.40625 L 54.921875 -146.28125 C 42.628906 -142.6875 30.296875 -141.632812 17.921875 -143.125 C 5.546875 -144.625 -5.898438 -148.253906 -16.421875 -154.015625 C -26.941406 -159.785156 -36.144531 -167.40625 -44.03125 -176.875 C -51.914062 -186.351562 -57.691406 -197.378906 -61.359375 -209.953125 C -64.953125 -222.234375 -66 -234.5625 -64.5 -246.9375 C -63 -259.320312 -59.367188 -270.769531 -53.609375 -281.28125 C -47.847656 -291.800781 -40.15625 -301.023438 -30.53125 -308.953125 C -20.914062 -316.878906 -9.960938 -322.640625 2.328125 -326.234375 L 332.265625 -422.671875 L 349.796875 -362.671875 Z M 19.859375 -266.234375"/></g></g></g></g></g><g clip-path="url(#c9212a2ce2)"><g clip-path="url(#a23d956636)"><g clip-path="url(#a3eb68b274)"><path fill="#4512ff" d="M 952.679688 369.632812 L 898.929688 467.785156 L 1187.960938 626.070312 L 105.75 942.382812 L 137.148438 1049.804688 L 1219.359375 733.496094 L 1061.070312 1022.527344 L 1159.222656 1076.277344 L 1409.273438 619.6875 Z M 952.679688 369.632812" fill-opacity="1" fill-rule="nonzero"/></g></g></g></svg>