<svg xmlns="http://www.w3.org/2000/svg" xmlns:xlink="http://www.w3.org/1999/xlink"  viewBox="396 451 496 376"  preserveAspectRatio="xMidYMid meet"><defs><g/><clipPath id="61b440d723"><rect x="0" width="277" y="0" height="291"/></clipPath><clipPath id="989aa3042f"><rect x="0" width="277" y="0" height="291"/></clipPath><clipPath id="4e462d1b6a"><path d="M 458 486 L 1044 486 L 1044 804 L 458 804 Z M 458 486" clip-rule="nonzero"/></clipPath><clipPath id="5e53506a71"><path d="M 418.601562 609.453125 L 998.105469 440.074219 L 1090.6875 756.824219 L 511.183594 926.203125 Z M 418.601562 609.453125" clip-rule="nonzero"/></clipPath><clipPath id="3b5fc27b40"><path d="M 418.601562 609.453125 L 998.105469 440.074219 L 1090.6875 756.824219 L 511.183594 926.203125 Z M 418.601562 609.453125" clip-rule="nonzero"/></clipPath></defs><g transform="matrix(1, 0, 0, 1, 600, 466)"><g clip-path="url(#61b440d723)"><g fill="#381da3" fill-opacity="1"><g transform="translate(54.888457, 248.161029)"><g><path d="M 8.90625 -119.46875 C 5.1875 -118.382812 2.398438 -116.144531 0.546875 -112.75 C -1.304688 -109.351562 -1.691406 -105.796875 -0.609375 -102.078125 C 0.472656 -98.367188 2.710938 -95.582031 6.109375 -93.71875 C 9.503906 -91.851562 13.0625 -91.460938 16.78125 -92.546875 L 124.453125 -124.015625 C 129.953125 -125.628906 135.476562 -126.097656 141.03125 -125.421875 C 146.582031 -124.753906 151.71875 -123.125 156.4375 -120.53125 C 161.15625 -117.945312 165.289062 -114.492188 168.84375 -110.171875 C 172.40625 -105.859375 174.992188 -100.945312 176.609375 -95.4375 C 178.210938 -89.925781 178.675781 -84.394531 178 -78.84375 C 177.332031 -73.300781 175.707031 -68.164062 173.125 -63.4375 C 170.539062 -58.71875 167.085938 -54.578125 162.765625 -51.015625 C 158.453125 -47.460938 153.546875 -44.878906 148.046875 -43.265625 L 0 0 L -7.921875 -27.09375 L 140.125 -70.359375 C 143.832031 -71.441406 146.625 -73.648438 148.5 -76.984375 C 150.382812 -80.328125 150.785156 -83.859375 149.703125 -87.578125 C 148.609375 -91.296875 146.363281 -94.082031 142.96875 -95.9375 C 139.570312 -97.789062 136.019531 -98.175781 132.3125 -97.09375 L 24.640625 -65.625 C 19.128906 -64.019531 13.597656 -63.550781 8.046875 -64.21875 C 2.503906 -64.894531 -2.628906 -66.523438 -7.359375 -69.109375 C -12.085938 -71.703125 -16.21875 -75.117188 -19.75 -79.359375 C -23.289062 -83.609375 -25.882812 -88.554688 -27.53125 -94.203125 C -29.144531 -99.722656 -29.613281 -105.257812 -28.9375 -110.8125 C -28.269531 -116.363281 -26.640625 -121.5 -24.046875 -126.21875 C -21.460938 -130.9375 -18.007812 -135.070312 -13.6875 -138.625 C -9.375 -142.1875 -4.460938 -144.769531 1.046875 -146.375 L 149.078125 -189.640625 L 156.9375 -162.734375 Z M 8.90625 -119.46875"/></g></g></g></g></g><g transform="matrix(1, 0, 0, 1, 411, 521)"><g clip-path="url(#989aa3042f)"><g fill="#000000" fill-opacity="1"><g transform="translate(54.80609, 248.104265)"><g><path d="M 8.90625 -119.46875 C 5.1875 -118.382812 2.398438 -116.144531 0.546875 -112.75 C -1.304688 -109.351562 -1.691406 -105.796875 -0.609375 -102.078125 C 0.472656 -98.367188 2.710938 -95.582031 6.109375 -93.71875 C 9.503906 -91.851562 13.0625 -91.460938 16.78125 -92.546875 L 124.453125 -124.015625 C 129.953125 -125.628906 135.476562 -126.097656 141.03125 -125.421875 C 146.582031 -124.753906 151.71875 -123.125 156.4375 -120.53125 C 161.15625 -117.945312 165.289062 -114.492188 168.84375 -110.171875 C 172.40625 -105.859375 174.992188 -100.945312 176.609375 -95.4375 C 178.210938 -89.925781 178.675781 -84.394531 178 -78.84375 C 177.332031 -73.300781 175.707031 -68.164062 173.125 -63.4375 C 170.539062 -58.71875 167.085938 -54.578125 162.765625 -51.015625 C 158.453125 -47.460938 153.546875 -44.878906 148.046875 -43.265625 L 0 0 L -7.921875 -27.09375 L 140.125 -70.359375 C 143.832031 -71.441406 146.625 -73.648438 148.5 -76.984375 C 150.382812 -80.328125 150.785156 -83.859375 149.703125 -87.578125 C 148.609375 -91.296875 146.363281 -94.082031 142.96875 -95.9375 C 139.570312 -97.789062 136.019531 -98.175781 132.3125 -97.09375 L 24.640625 -65.625 C 19.128906 -64.019531 13.597656 -63.550781 8.046875 -64.21875 C 2.503906 -64.894531 -2.628906 -66.523438 -7.359375 -69.109375 C -12.085938 -71.703125 -16.21875 -75.117188 -19.75 -79.359375 C -23.289062 -83.609375 -25.882812 -88.554688 -27.53125 -94.203125 C -29.144531 -99.722656 -29.613281 -105.257812 -28.9375 -110.8125 C -28.269531 -116.363281 -26.640625 -121.5 -24.046875 -126.21875 C -21.460938 -130.9375 -18.007812 -135.070312 -13.6875 -138.625 C -9.375 -142.1875 -4.460938 -144.769531 1.046875 -146.375 L 149.078125 -189.640625 L 156.9375 -162.734375 Z M 8.90625 -119.46875"/></g></g></g></g></g><g clip-path="url(#4e462d1b6a)"><g clip-path="url(#5e53506a71)"><g clip-path="url(#3b5fc27b40)"><path fill="#4512ff" d="M 838.554688 486.65625 L 814.433594 530.695312 L 944.121094 601.71875 L 458.535156 743.648438 L 472.625 791.847656 L 958.210938 649.917969 L 887.1875 779.609375 L 931.226562 803.726562 L 1043.425781 598.851562 Z M 838.554688 486.65625" fill-opacity="1" fill-rule="nonzero"/></g></g></g><g fill="#000000" fill-opacity="1"><g transform="translate(113.960685, 914.242053)"><g><path d="M 31.328125 -83.53125 C 28.441406 -83.53125 25.976562 -82.507812 23.9375 -80.46875 C 21.894531 -78.425781 20.875 -75.96875 20.875 -73.09375 C 20.875 -70.207031 21.894531 -67.742188 23.9375 -65.703125 C 25.976562 -63.660156 28.441406 -62.640625 31.328125 -62.640625 L 114.84375 -62.640625 C 119.125 -62.640625 123.175781 -61.816406 127 -60.171875 C 130.832031 -58.535156 134.164062 -56.300781 137 -53.46875 C 139.832031 -50.632812 142.066406 -47.300781 143.703125 -43.46875 C 145.347656 -39.644531 146.171875 -35.597656 146.171875 -31.328125 C 146.171875 -27.046875 145.347656 -22.988281 143.703125 -19.15625 C 142.066406 -15.332031 139.832031 -12.003906 137 -9.171875 C 134.164062 -6.335938 130.832031 -4.097656 127 -2.453125 C 123.175781 -0.816406 119.125 0 114.84375 0 L 0 0 L 0 -21.03125 L 114.84375 -21.03125 C 117.726562 -21.03125 120.191406 -22.023438 122.234375 -24.015625 C 124.273438 -26.003906 125.296875 -28.441406 125.296875 -31.328125 C 125.296875 -34.203125 124.273438 -36.660156 122.234375 -38.703125 C 120.191406 -40.742188 117.726562 -41.765625 114.84375 -41.765625 L 31.328125 -41.765625 C 27.046875 -41.765625 22.988281 -42.582031 19.15625 -44.21875 C 15.332031 -45.863281 12.003906 -48.101562 9.171875 -50.9375 C 6.335938 -53.769531 4.097656 -57.078125 2.453125 -60.859375 C 0.816406 -64.640625 0 -68.71875 0 -73.09375 C 0 -77.363281 0.816406 -81.410156 2.453125 -85.234375 C 4.097656 -89.066406 6.335938 -92.398438 9.171875 -95.234375 C 12.003906 -98.066406 15.332031 -100.300781 19.15625 -101.9375 C 22.988281 -103.582031 27.046875 -104.40625 31.328125 -104.40625 L 146.171875 -104.40625 L 146.171875 -83.53125 Z M 31.328125 -83.53125"/></g></g></g><g fill="#000000" fill-opacity="1"><g transform="translate(275.036821, 914.242053)"><g><path d="M 31.328125 -62.5 C 28.441406 -62.5 26.003906 -61.503906 24.015625 -59.515625 C 22.023438 -57.523438 21.03125 -55.085938 21.03125 -52.203125 L 21.03125 -31.171875 C 21.03125 -28.285156 22.023438 -25.820312 24.015625 -23.78125 C 26.003906 -21.75 28.441406 -20.734375 31.328125 -20.734375 L 104.40625 -20.734375 L 104.40625 0 L 31.328125 0 C 27.046875 0 22.988281 -0.816406 19.15625 -2.453125 C 15.332031 -4.097656 12.003906 -6.3125 9.171875 -9.09375 C 6.335938 -11.882812 4.097656 -15.164062 2.453125 -18.9375 C 0.816406 -22.71875 0 -26.796875 0 -31.171875 L 0 -52.203125 C 0 -56.484375 0.816406 -60.507812 2.453125 -64.28125 C 4.097656 -68.0625 6.335938 -71.367188 9.171875 -74.203125 C 12.003906 -77.035156 15.332031 -79.269531 19.15625 -80.90625 C 22.988281 -82.550781 27.046875 -83.375 31.328125 -83.375 L 104.40625 -83.375 L 104.40625 -62.5 Z M 31.328125 -62.5"/></g></g></g><g fill="#000000" fill-opacity="1"><g transform="translate(394.352488, 914.242053)"><g><path d="M 26.109375 0 C 22.523438 0 19.140625 -0.671875 15.953125 -2.015625 C 12.773438 -3.359375 9.992188 -5.222656 7.609375 -7.609375 C 5.222656 -9.992188 3.359375 -12.75 2.015625 -15.875 C 0.671875 -19.007812 0 -22.367188 0 -25.953125 C 0 -29.535156 0.671875 -32.914062 2.015625 -36.09375 C 3.359375 -39.28125 5.222656 -42.066406 7.609375 -44.453125 C 9.992188 -46.835938 12.773438 -48.722656 15.953125 -50.109375 C 19.140625 -51.503906 22.523438 -52.203125 26.109375 -52.203125 L 83.53125 -52.203125 C 83.53125 -55.085938 82.507812 -57.523438 80.46875 -59.515625 C 78.425781 -61.503906 75.96875 -62.5 73.09375 -62.5 L 0 -62.5 L 0 -83.375 L 73.09375 -83.375 C 77.363281 -83.375 81.410156 -82.550781 85.234375 -80.90625 C 89.066406 -79.269531 92.398438 -77.035156 95.234375 -74.203125 C 98.066406 -71.367188 100.300781 -68.0625 101.9375 -64.28125 C 103.582031 -60.507812 104.40625 -56.484375 104.40625 -52.203125 L 104.40625 0 Z M 20.875 -25.953125 C 20.875 -24.554688 21.394531 -23.335938 22.4375 -22.296875 C 23.488281 -21.253906 24.710938 -20.734375 26.109375 -20.734375 L 83.53125 -20.734375 L 83.53125 -31.171875 L 26.109375 -31.171875 C 24.710938 -31.171875 23.488281 -30.671875 22.4375 -29.671875 C 21.394531 -28.679688 20.875 -27.441406 20.875 -25.953125 Z M 20.875 -25.953125"/></g></g></g><g fill="#000000" fill-opacity="1"><g transform="translate(513.668167, 914.242053)"><g><path d="M 0 0 L 0 -104.265625 L 20.734375 -104.265625 L 20.734375 0 Z M 0 0"/></g></g></g><g fill="#000000" fill-opacity="1"><g transform="translate(549.313718, 914.242053)"><g><path d="M 31.328125 0 C 27.046875 0 22.988281 -0.816406 19.15625 -2.453125 C 15.332031 -4.097656 12.003906 -6.3125 9.171875 -9.09375 C 6.335938 -11.882812 4.097656 -15.164062 2.453125 -18.9375 C 0.816406 -22.71875 0 -26.796875 0 -31.171875 L 0 -52.203125 C 0 -56.484375 0.816406 -60.507812 2.453125 -64.28125 C 4.097656 -68.0625 6.335938 -71.367188 9.171875 -74.203125 C 12.003906 -77.035156 15.332031 -79.269531 19.15625 -80.90625 C 22.988281 -82.550781 27.046875 -83.375 31.328125 -83.375 L 104.40625 -83.375 L 104.40625 -62.5 L 31.328125 -62.5 C 28.441406 -62.5 26.003906 -61.503906 24.015625 -59.515625 C 22.023438 -57.523438 21.03125 -55.085938 21.03125 -52.203125 L 104.40625 -52.203125 L 104.40625 -31.171875 L 21.03125 -31.171875 C 21.03125 -28.285156 22.023438 -25.820312 24.015625 -23.78125 C 26.003906 -21.75 28.441406 -20.734375 31.328125 -20.734375 L 104.40625 -20.734375 L 104.40625 0 Z M 31.328125 0"/></g></g></g><g fill="#4512ff" fill-opacity="1"><g transform="translate(668.632512, 914.242053)"><g/></g></g><g fill="#381da3" fill-opacity="1"><g transform="translate(750.663755, 914.242053)"><g><path d="M 31.328125 -83.53125 C 28.441406 -83.53125 25.976562 -82.507812 23.9375 -80.46875 C 21.894531 -78.425781 20.875 -75.96875 20.875 -73.09375 C 20.875 -70.207031 21.894531 -67.742188 23.9375 -65.703125 C 25.976562 -63.660156 28.441406 -62.640625 31.328125 -62.640625 L 114.84375 -62.640625 C 119.125 -62.640625 123.175781 -61.816406 127 -60.171875 C 130.832031 -58.535156 134.164062 -56.300781 137 -53.46875 C 139.832031 -50.632812 142.066406 -47.300781 143.703125 -43.46875 C 145.347656 -39.644531 146.171875 -35.597656 146.171875 -31.328125 C 146.171875 -27.046875 145.347656 -22.988281 143.703125 -19.15625 C 142.066406 -15.332031 139.832031 -12.003906 137 -9.171875 C 134.164062 -6.335938 130.832031 -4.097656 127 -2.453125 C 123.175781 -0.816406 119.125 0 114.84375 0 L 0 0 L 0 -21.03125 L 114.84375 -21.03125 C 117.726562 -21.03125 120.191406 -22.023438 122.234375 -24.015625 C 124.273438 -26.003906 125.296875 -28.441406 125.296875 -31.328125 C 125.296875 -34.203125 124.273438 -36.660156 122.234375 -38.703125 C 120.191406 -40.742188 117.726562 -41.765625 114.84375 -41.765625 L 31.328125 -41.765625 C 27.046875 -41.765625 22.988281 -42.582031 19.15625 -44.21875 C 15.332031 -45.863281 12.003906 -48.101562 9.171875 -50.9375 C 6.335938 -53.769531 4.097656 -57.078125 2.453125 -60.859375 C 0.816406 -64.640625 0 -68.71875 0 -73.09375 C 0 -77.363281 0.816406 -81.410156 2.453125 -85.234375 C 4.097656 -89.066406 6.335938 -92.398438 9.171875 -95.234375 C 12.003906 -98.066406 15.332031 -100.300781 19.15625 -101.9375 C 22.988281 -103.582031 27.046875 -104.40625 31.328125 -104.40625 L 146.171875 -104.40625 L 146.171875 -83.53125 Z M 31.328125 -83.53125"/></g></g></g><g fill="#381da3" fill-opacity="1"><g transform="translate(911.739891, 914.242053)"><g><path d="M 83.53125 -83.375 L 104.40625 -83.375 L 104.40625 0 L 31.46875 0 C 27.09375 0 22.988281 -0.816406 19.15625 -2.453125 C 15.332031 -4.097656 12.003906 -6.3125 9.171875 -9.09375 C 6.335938 -11.882812 4.097656 -15.164062 2.453125 -18.9375 C 0.816406 -22.71875 0 -26.796875 0 -31.171875 L 0 -83.375 L 20.875 -83.375 L 20.875 -31.171875 C 20.875 -28.285156 21.894531 -25.820312 23.9375 -23.78125 C 25.976562 -21.75 28.488281 -20.734375 31.46875 -20.734375 L 83.53125 -20.734375 Z M 83.53125 -83.375"/></g></g></g><g fill="#381da3" fill-opacity="1"><g transform="translate(1031.055559, 914.242053)"><g><path d="M 0 -52.203125 C 0 -56.484375 0.816406 -60.507812 2.453125 -64.28125 C 4.097656 -68.0625 6.335938 -71.367188 9.171875 -74.203125 C 12.003906 -77.035156 15.3125 -79.269531 19.09375 -80.90625 C 22.875 -82.550781 26.898438 -83.375 31.171875 -83.375 L 104.40625 -83.375 L 104.40625 -62.5 L 31.171875 -62.5 C 28.285156 -62.5 25.847656 -61.503906 23.859375 -59.515625 C 21.867188 -57.523438 20.875 -55.085938 20.875 -52.203125 L 20.875 0 L 0 0 Z M 0 -52.203125"/></g></g></g><g fill="#381da3" fill-opacity="1"><g transform="translate(1147.388175, 914.242053)"><g><path d="M 0 -52.203125 C 0 -56.484375 0.816406 -60.507812 2.453125 -64.28125 C 4.097656 -68.0625 6.363281 -71.367188 9.25 -74.203125 C 12.132812 -77.035156 15.460938 -79.269531 19.234375 -80.90625 C 23.015625 -82.550781 27.09375 -83.375 31.46875 -83.375 L 104.40625 -83.375 L 104.40625 0 C 104.40625 4.375 103.582031 8.453125 101.9375 12.234375 C 100.300781 16.015625 98.066406 19.34375 95.234375 22.21875 C 92.398438 25.101562 89.09375 27.363281 85.3125 29 C 81.539062 30.644531 77.515625 31.46875 73.234375 31.46875 L 0 31.46875 L 0 10.4375 L 73.234375 10.4375 C 76.117188 10.4375 78.578125 9.414062 80.609375 7.375 C 82.648438 5.34375 83.671875 2.882812 83.671875 0 L 31.46875 0 C 27.09375 0 23.015625 -0.816406 19.234375 -2.453125 C 15.460938 -4.097656 12.132812 -6.3125 9.25 -9.09375 C 6.363281 -11.882812 4.097656 -15.164062 2.453125 -18.9375 C 0.816406 -22.71875 0 -26.796875 0 -31.171875 Z M 21.03125 -31.171875 C 21.03125 -28.285156 22.046875 -25.820312 24.078125 -23.78125 C 26.117188 -21.75 28.582031 -20.734375 31.46875 -20.734375 L 83.671875 -20.734375 L 83.671875 -62.5 L 31.46875 -62.5 C 28.582031 -62.5 26.117188 -61.503906 24.078125 -59.515625 C 22.046875 -57.523438 21.03125 -55.085938 21.03125 -52.203125 Z M 21.03125 -31.171875"/></g></g></g><g fill="#381da3" fill-opacity="1"><g transform="translate(1266.703853, 914.242053)"><g><path d="M 31.328125 0 C 27.046875 0 22.988281 -0.816406 19.15625 -2.453125 C 15.332031 -4.097656 12.003906 -6.3125 9.171875 -9.09375 C 6.335938 -11.882812 4.097656 -15.164062 2.453125 -18.9375 C 0.816406 -22.71875 0 -26.796875 0 -31.171875 L 0 -52.203125 C 0 -56.484375 0.816406 -60.507812 2.453125 -64.28125 C 4.097656 -68.0625 6.335938 -71.367188 9.171875 -74.203125 C 12.003906 -77.035156 15.332031 -79.269531 19.15625 -80.90625 C 22.988281 -82.550781 27.046875 -83.375 31.328125 -83.375 L 104.40625 -83.375 L 104.40625 -62.5 L 31.328125 -62.5 C 28.441406 -62.5 26.003906 -61.503906 24.015625 -59.515625 C 22.023438 -57.523438 21.03125 -55.085938 21.03125 -52.203125 L 104.40625 -52.203125 L 104.40625 -31.171875 L 21.03125 -31.171875 C 21.03125 -28.285156 22.023438 -25.820312 24.015625 -23.78125 C 26.003906 -21.75 28.441406 -20.734375 31.328125 -20.734375 L 104.40625 -20.734375 L 104.40625 0 Z M 31.328125 0"/></g></g></g></svg>